<?xml version="1.0" encoding="utf-8"?>
<!-- Generator: Adobe Illustrator 18.1.0, SVG Export Plug-In . SVG Version: 6.00 Build 0)  -->
<!DOCTYPE svg PUBLIC "-//W3C//DTD SVG 1.1//EN" "http://www.w3.org/Graphics/SVG/1.1/DTD/svg11.dtd">
<svg version="1.1" id="Layer_1" xmlns="http://www.w3.org/2000/svg" xmlns:xlink="http://www.w3.org/1999/xlink" x="0px" y="0px"
	 viewBox="0 0 85.4 66" enable-background="new 0 0 85.4 66" xml:space="preserve">
<g>
	<path fill="#FFFFFF" d="M15.8,18c1.5-4.1,4.4-5.6,8.7-5.4c7.6,0.2,15.2,0.1,22.8,0.1c0.8,0,1.5,0.1,2.7,0.1
		c-3.3,3.4-5.9,6.8-11.3,6.2c-5.4-0.6-10.8-0.1-16.3-0.1c0,11.7,0,23.2,0,34.8c11.6,0,23.1,0,34.8,0c0-5.6,0.3-11.1-0.1-16.5
		c-0.3-4.2,1-7.2,4.2-9.6c0.5-0.4,0.8-1,1.5-1.9c0.2,1.2,0.4,1.7,0.4,2.2c0,8.3,0.1,16.6,0,24.9c0,4.8-2.4,7.1-7.3,7.1
		c-10.4,0-20.7-0.2-31.1,0.1c-4.2,0.1-7.2-1.1-9-5C15.8,42.7,15.8,30.3,15.8,18z"/>
	<path fill="#FFFFFF" d="M55.1,14c2.3,2.4,4.4,4.6,6.7,7c-6.6,6.6-13.2,13.6-20.3,19.9c-2.3,2.1-6.2,2.4-10,3.7
		c1.6-4.4,1.7-8.6,4.9-11.8C42.7,26.6,48.8,20.3,55.1,14z M38.1,35.4c0.7-0.1,1.6,0,1.9-0.3c5.4-5.2,10.7-10.4,16-15.7
		c0.3-0.3,0.2-1,0.3-1.6c-0.5,0.1-1.2,0-1.5,0.3C49.3,23.8,43.9,29.4,38.1,35.4z"/>
	<path fill="#FFFFFF" d="M61.6,7.7c0.4-0.4,0.9-1,1.5-1.6c2.2,2.4,4.3,4.6,6.5,7c-0.3,0.3-0.8,0.9-1.4,1.6C66,12.3,63.9,10,61.6,7.7
		z"/>
	<path fill="#FFFFFF" d="M57.6,11.8c0.4-0.5,1-1.1,1.7-1.9c2.1,2.4,4.1,4.7,6.3,7.2c-0.1,0.1-0.7,0.8-1.4,1.5
		C61.9,16.3,59.9,14.1,57.6,11.8z"/>
</g>
</svg>
