<?xml version="1.0" encoding="utf-8"?>
<!-- Generator: Adobe Illustrator 18.1.0, SVG Export Plug-In . SVG Version: 6.00 Build 0)  -->
<!DOCTYPE svg PUBLIC "-//W3C//DTD SVG 1.1//EN" "http://www.w3.org/Graphics/SVG/1.1/DTD/svg11.dtd">
<svg version="1.1" id="Layer_1" xmlns="http://www.w3.org/2000/svg" xmlns:xlink="http://www.w3.org/1999/xlink" x="0px" y="0px"
	 viewBox="550 0 100 200" enable-background="new 550 0 100 200" xml:space="preserve">
<g>
	<text transform="matrix(1 0 0 1 569.158 133.3345)" fill="#FFFFFF" font-family="'ArialMT'" font-size="20">Help</text>
</g>
<g>
	<path fill="#FFFFFF" d="M587.4,86.3c0-1.5-0.1-2.7-0.1-3.5c0-4.5,0.7-8.4,2.1-11.7c1-2.5,2.7-5,4.9-7.5c1.7-1.8,4.7-4.5,9-8
		c4.3-3.5,7.1-6.3,8.4-8.4c1.3-2.1,1.9-4.4,1.9-6.8c0-4.5-1.9-8.4-5.7-11.8c-3.8-3.4-8.5-5.1-14-5.1c-5.3,0-9.8,1.5-13.3,4.6
		c-3.6,3.1-5.9,7.9-7,14.4l-12.9-1.4c1.2-8.7,4.6-15.4,10.3-20.1c5.7-4.6,13.3-7,22.7-7c10,0,17.9,2.5,23.8,7.5s8.9,11,8.9,18.1
		c0,4.1-1,7.9-3.1,11.3s-6.2,7.6-12.2,12.6c-4.1,3.3-6.7,5.8-8,7.3c-1.3,1.6-2.2,3.4-2.8,5.4c-0.6,2-1,5.4-1,10H587.4z M586.6,109.4
		V96.3h14.2v13.1H586.6z"/>
</g>
</svg>
