<?xml version="1.0" encoding="utf-8"?>
<!-- Generator: Adobe Illustrator 18.1.0, SVG Export Plug-In . SVG Version: 6.00 Build 0)  -->
<!DOCTYPE svg PUBLIC "-//W3C//DTD SVG 1.1//EN" "http://www.w3.org/Graphics/SVG/1.1/DTD/svg11.dtd">
<svg version="1.1" id="Layer_1" xmlns="http://www.w3.org/2000/svg" xmlns:xlink="http://www.w3.org/1999/xlink" x="0px" y="0px"
	 viewBox="0 0 648 1152" enable-background="new 0 0 648 1152" xml:space="preserve">
<g>
	<g>
		<path fill="#FFFFFF" d="M247.5,671.1l-1.1-0.2c-6.4-0.9-8.9,3.2-9.4,6.2c-0.4,2.8,0.9,4.9,3.4,5.2c1.3,0.2,3.4-0.3,4.9-1.3
			l-0.7,2.5c-1.7,0.7-3.4,0.9-4.8,0.7c-3.5-0.5-5.6-3.5-5.1-7.3c0.8-5.4,5.3-8.9,11.9-8l1.5,0.2L247.5,671.1z"/>
		<path fill="#FFFFFF" d="M250,685.4c-2.4-0.2-3.7-2-3.5-4.9c0.3-3.6,2.6-6.2,5.4-6c2.3,0.2,3.7,2.1,3.5,4.8
			C255.1,683.2,252.7,685.6,250,685.4z M250.1,683.8c1.6,0.1,3.1-1.8,3.3-4.7c0.1-1.7-0.5-2.9-1.6-3c-1.7-0.1-3.1,2.2-3.3,4.8
			C248.4,682.6,249.1,683.7,250.1,683.8z"/>
		<path fill="#FFFFFF" d="M259.2,677.1L259.2,677.1c1.3-1.4,2.4-2,3.6-2c0.8,0,2.1,0.4,2.4,2.3c1.5-1.8,2.8-2.3,3.8-2.4
			c1.5,0,2.8,1.1,2.4,3.8l-0.9,6.7l-2,0l0.9-6.8c0.2-1.4-0.2-2.2-1.1-2.1c-0.7,0-1.8,0.5-3.2,2.4l-0.9,6.6l-2,0l0.9-6.5
			c0.2-1.5-0.1-2.4-1.2-2.4c-0.8,0-2,1-3.1,2.4l-0.9,6.6l-2,0l1.4-10.3l2,0L259.2,677.1z"/>
		<path fill="#FFFFFF" d="M275.4,676.6L275.4,676.6c1.2-1.5,2.2-2.2,3.4-2.3c0.8-0.1,2.1,0.2,2.6,2.1c1.3-2,2.6-2.6,3.6-2.7
			c1.5-0.2,2.9,0.8,2.8,3.5l-0.2,6.7l-1.9,0.2l0.2-6.8c0.1-1.4-0.4-2.1-1.3-2c-0.7,0.1-1.8,0.7-3,2.7l-0.2,6.6l-1.9,0.2l0.2-6.6
			c0.1-1.5-0.3-2.4-1.4-2.3c-0.8,0.1-1.9,1.2-2.8,2.7l-0.2,6.6l-1.9,0.2l0.4-10.4l1.9-0.2L275.4,676.6z"/>
		<path fill="#FFFFFF" d="M297.7,682.1l-1.9,0.3l-0.1-1.7l-0.1,0c-0.6,1-1.6,2.2-3,2.5c-1.1,0.2-2.9-0.3-3.1-3.2l-0.3-6.9l1.9-0.4
			l0.3,6.9c0.1,1.9,1,2,1.5,1.9c0.7-0.1,1.6-0.9,2.6-2.8l-0.3-6.8l1.9-0.4L297.7,682.1z"/>
		<path fill="#FFFFFF" d="M301.6,672.5L301.6,672.5c0.8-1.6,1.8-2.5,2.9-2.7c2.1-0.5,3.2,1.6,3.3,3.3l0.6,6.5l-1.9,0.5l-0.6-6.6
			c-0.2-1.8-1.1-2.1-1.6-2c-0.5,0.1-1.5,0.8-2.5,3l0.6,6.6l-1.9,0.5l-1-10.4l1.9-0.5L301.6,672.5z"/>
		<path fill="#FFFFFF" d="M310.8,664.8c0.2,0.6-0.2,1.2-0.8,1.4c-0.6,0.2-1.2-0.2-1.4-0.8c-0.2-0.6,0.2-1.2,0.8-1.4
			C310,663.9,310.7,664.2,310.8,664.8z M312.7,678.4l-1.9,0.5l-1.4-10.3l1.9-0.5L312.7,678.4z"/>
		<path fill="#FFFFFF" d="M317.9,667.6l-2,0.6l0.8,5.7c0.2,1.3,0.6,1.6,1.5,1.3c0.5-0.2,0.9-0.4,1.6-1.2l0.5,1.9
			c-0.7,0.6-1.2,0.9-1.9,1.1c-1.9,0.6-3.2-0.3-3.4-1.9l-0.9-6.3l-1.7,0.5l-0.2-1.5l1.8-0.6l-0.3-2.1l1.8-0.6l0.3,2.1l1.9-0.6
			L317.9,667.6z"/>
		<path fill="#FFFFFF" d="M324.1,680.3l-1.9,0.7l0.6-6.5l-5.2-8.4l1.8-0.7l3.7,6.2l0,0l0.6-7.8l1.9-0.7L324.1,680.3z"/>
		<path fill="#FFFFFF" d="M340.6,652.7l-1,0.5c-5.9,2.7-5.8,7.6-4.5,10.3c1.2,2.6,3.4,3.6,5.7,2.5c1.2-0.6,2.6-2.1,3.5-3.7l0.7,2.4
			c-1,1.5-2.3,2.6-3.6,3.2c-3.2,1.5-6.6,0.1-8.2-3.4c-2.3-5-0.3-10.4,5.7-13.1l1.4-0.6L340.6,652.7z"/>
		<path fill="#FFFFFF" d="M350.5,663.4c-2.1,1.1-4.2,0.3-5.6-2.3c-1.7-3.2-1.1-6.6,1.4-7.9c2.1-1.1,4.2-0.2,5.5,2.2
			C353.6,658.9,352.9,662.2,350.5,663.4z M349.6,662c1.4-0.8,1.7-3.2,0.3-5.7c-0.8-1.5-2-2.2-3-1.7c-1.5,0.8-1.5,3.5-0.3,5.8
			C347.5,661.9,348.8,662.5,349.6,662z"/>
		<path fill="#FFFFFF" d="M357.4,659.3l-1.7,1l-5.9-14.7l1.7-1L357.4,659.3z"/>
		<path fill="#FFFFFF" d="M361.1,657.1l-1.7,1l-6.2-14.6l1.7-1L361.1,657.1z"/>
		<path fill="#FFFFFF" d="M370.1,651.4l-1.6,1.1l-0.5-1.1l-0.1,0c-0.2,1.2-0.7,2.2-1.5,2.7c-1.6,1-3.8,0.3-5.1-1.6
			c-1.8-2.8-2-6.7,2.2-9.5c0.6-0.4,1.6-0.9,2.2-1.1L370.1,651.4z M364.6,644.3c-3.9,2.1-2.6,5.7-1.9,6.8c0.9,1.4,2.2,1.9,3.3,1.3
			c0.7-0.4,1.1-1.6,1.2-2.6L364.6,644.3z"/>
		<path fill="#FFFFFF" d="M369.4,640.3L369.4,640.3c0.3-1.2,0.6-1.8,1.4-2.4c1.7-1.3,4.1-0.6,5.7,1.7c1.6,2.2,2.4,6-1.8,9
			c-0.8,0.6-1.8,1.2-2.3,1.5l-7.5-14.1l1.6-1.2L369.4,640.3z M374.1,647c2.2-1.6,2.3-4,0.7-6.3c-1.1-1.5-2.4-1.9-3.5-1.1
			c-0.5,0.4-1.4,1.6-1,2.4l3,5.7L374.1,647z"/>
		<path fill="#FFFFFF" d="M384.4,641.3c-1.9,1.5-4.1,1.1-5.9-1.2c-2.2-2.8-2.3-6.3-0.1-8c1.8-1.5,4.1-1,5.8,1.1
			C386.6,636.3,386.5,639.7,384.4,641.3z M383.3,640.1c1.3-1,1-3.4-0.7-5.7c-1.1-1.3-2.3-1.8-3.2-1.1c-1.3,1-0.8,3.7,0.8,5.7
			C381.2,640.4,382.5,640.7,383.3,640.1z"/>
		<path fill="#FFFFFF" d="M386.1,628.7L386.1,628.7c-0.1-2.1,0-2.8,0.7-3.4c0.2-0.2,0.4-0.3,0.7-0.4l1.4,1.7
			c-0.5,0.1-0.8,0.2-1.1,0.5c-0.8,0.7-0.9,1.6-0.4,3.8l3.2,4.9l-1.5,1.3l-5.6-8.8l1.5-1.3L386.1,628.7z"/>
		<path fill="#FFFFFF" d="M400.1,627.3l-1.4,1.3l-0.7-1l-0.1,0c0,1.2-0.3,2.3-1.1,2.9c-1.4,1.3-3.7,1-5.3-0.7
			c-2.2-2.4-3.1-6.3,0.6-9.7c0.5-0.5,1.5-1.2,2-1.4L400.1,627.3z M393.6,621.2c-3.5,2.7-1.6,6-0.7,7.1c1.1,1.2,2.5,1.5,3.4,0.7
			c0.6-0.5,0.8-1.8,0.7-2.8L393.6,621.2z"/>
		<path fill="#FFFFFF" d="M399.9,615.2l-1.5,1.5l3.3,4.7c0.8,1.1,1.3,1.2,1.9,0.5c0.4-0.4,0.6-0.8,0.9-1.8l1.3,1.4
			c-0.3,0.8-0.7,1.3-1.2,1.8c-1.4,1.4-3,1.2-3.9-0.2L397,618l-1.3,1.3l-0.9-1.2l1.3-1.3l-1.2-1.8l1.4-1.4l1.2,1.8l1.4-1.4
			L399.9,615.2z"/>
		<path fill="#FFFFFF" d="M399.4,608.8c0.4,0.4,0.5,1.1,0,1.6c-0.4,0.4-1.1,0.5-1.6,0c-0.4-0.4-0.5-1.1,0-1.6
			C398.3,608.4,399,608.3,399.4,608.8z M407.8,619.6l-1.4,1.4l-6.4-8.2l1.4-1.4L407.8,619.6z"/>
		<path fill="#FFFFFF" d="M412.1,615.4l-0.7,0.7l-9.3-5.4l1.3-1.4l5.7,3.4l0,0l-2.6-6.9l1.3-1.5L412.1,615.4z"/>
		<path fill="#FFFFFF" d="M420,604.9c-0.1,1.3-0.6,2.4-1.4,3.4c-1.7,2-4.3,2-6.6,0c-2.6-2.2-3.1-5.5-1.4-7.6
			c1.5-1.7,4.2-1.7,6.3,0.7l-4.2,4.9c1.8,2.2,3.8,1.9,4.8,0.6c0.6-0.7,1-1.9,1.1-3.5L420,604.9z M414.8,601.9c-1-0.9-2.1-1.1-3-0.1
			c-0.7,0.9-0.7,2,0.2,3.4L414.8,601.9z"/>
		<path fill="#FFFFFF" d="M416.5,585.3c1.2-1.6,2.1-2.3,3.3-2.6c1.1-0.2,2.2,0.1,3.3,0.9c1.5,1.1,1.9,3,1.1,4.9
			c0.5-0.2,1.4-0.2,2.2,0l6.4,1.3l-1.3,1.8l-4.1-0.8c-2.9-0.6-3.7-0.4-4.5,0.7l-0.5,0.7l5,4.9l-1.3,1.7l-11.2-11.1L416.5,585.3z
			 M421,590.7l0.7-0.9c1.7-2.3,1-3.8,0-4.6c-1.2-0.9-2.4-0.6-3.5,0.9l-0.7,1L421,590.7z"/>
		<path fill="#FFFFFF" d="M437.8,582.4l-1.1,1.6l-0.9-0.8l-0.1,0c0.3,1.2,0.2,2.3-0.4,3.1c-1.1,1.6-3.4,1.8-5.3,0.5
			c-2.7-1.9-4.4-5.5-1.6-9.6c0.4-0.6,1.2-1.5,1.6-1.8L437.8,582.4z M430,577.9c-2.8,3.5-0.3,6.3,0.9,7c1.4,0.9,2.8,0.9,3.5-0.1
			c0.4-0.6,0.4-1.9,0.1-2.9L430,577.9z"/>
		<path fill="#FFFFFF" d="M430,569.6c0.5,0.3,0.7,1,0.3,1.6c-0.3,0.5-1,0.7-1.6,0.3c-0.5-0.3-0.7-1-0.3-1.6
			C428.7,569.4,429.4,569.2,430,569.6z M440.3,578.6l-1.1,1.6l-7.9-6.8l1.1-1.6L440.3,578.6z"/>
		<path fill="#FFFFFF" d="M436,569.4L436,569.4c-0.5-1.7-0.5-3,0.1-4c1.1-1.9,3.4-1.1,4.7,0l5,4.2l-1,1.6l-5.1-4.2
			c-1.4-1.2-2.2-0.8-2.5-0.2c-0.3,0.5-0.5,1.6,0.3,3.8l5.1,4.2l-1,1.6l-8-6.6l1-1.7L436,569.4z"/>
		<path fill="#FFFFFF" d="M448.6,569.4c0.2-1.1-0.1-1.8-0.9-2.3c-0.5,0.4-1,0.5-1.5,0.2c-0.7-0.4-0.9-1.2-0.4-1.9
			c0.4-0.7,1.4-0.9,2.3-0.3c1.5,0.9,2,2.9,1.4,5L448.6,569.4z"/>
		<path fill="#FFFFFF" d="M457.5,548.4l-1,1.9l-5.7-4.1l-3.9,7.5l5.7,4.1l-1,1.9l-12.9-9.2l1-1.9l5.6,4l3.9-7.5l-5.6-4l1-1.9
			L457.5,548.4z"/>
		<path fill="#FFFFFF" d="M462.4,538.3l-0.8,1.8l-1-0.7l-0.1,0c0.4,1.1,0.5,2.2,0.1,3.1c-0.8,1.7-3.1,2.3-5.1,1.3
			c-3-1.4-5.3-4.7-3.1-9.2c0.3-0.7,0.9-1.6,1.3-2.1L462.4,538.3z M454,535.1c-2.2,3.9,0.7,6.2,2,6.8c1.5,0.7,2.9,0.4,3.4-0.6
			c0.3-0.7,0.1-2-0.4-2.9L454,535.1z"/>
		<path fill="#FFFFFF" d="M452.6,526.9c0.6,0.3,0.8,0.9,0.6,1.5c-0.3,0.6-0.9,0.8-1.5,0.6c-0.6-0.3-0.8-0.9-0.6-1.5
			C451.4,526.9,452,526.7,452.6,526.9z M464.2,534.2l-0.8,1.8l-8.8-5.5l0.8-1.8L464.2,534.2z"/>
		<path fill="#FFFFFF" d="M465.9,530.3l-0.8,1.8l-13.5-8.2l0.8-1.8L465.9,530.3z"/>
		<path display="none" fill="#FFFFFF" d="M468.6,529.8c0.1-1.1-0.3-1.8-1.2-2.2c-0.5,0.4-0.9,0.6-1.4,0.4c-0.7-0.3-1-1.1-0.7-1.9
			c0.3-0.8,1.3-1,2.2-0.6c1.6,0.7,2.4,2.6,2,4.8L468.6,529.8z"/>
		<path fill="#FFFFFF" d="M467.8,503.8c0.9,0.8,2.9,2.9,3.7,4.8c1.7-0.8,2.1-1.9,2.2-2.2c0.1-0.2,0.1-0.3,0.1-0.5l1.3,1.3
			c0,0.2,0,0.4-0.1,0.5c-0.4,1-1.6,2.1-2.8,2.5c0.5,1.8,0.6,3.4-0.1,5.1c-1.1,2.8-3.5,3.5-5.7,2.6c-1.7-0.6-2.9-2.6-3.1-5
			c-1.1,0.1-2.2,0.1-3.4-0.3c-2-0.7-3-2.8-2.2-4.7c0.6-1.6,2.4-2.4,4.1-1.7c1.6,0.6,2.7,2.1,3.1,4.7c1.1-0.1,3.5-0.9,5.1-1.5
			c-0.7-1.6-1.8-2.8-2.8-3.7L467.8,503.8z M459.3,508.8c-0.3,0.8,0.3,1.7,1.4,2.1c0.7,0.3,1.3,0.3,2.4,0.2c-0.2-1.5-0.9-2.7-1.9-3.1
			C460.4,507.8,459.6,508.1,459.3,508.8z M470.7,514.4c0.3-0.8,0.3-2-0.1-3.3c-1.4,0.5-4,1.4-5.4,1.6c0.3,1.8,1,3,2,3.3
			C468.7,516.6,470.1,515.9,470.7,514.4z"/>
		<path fill="#FFFFFF" d="M468,486.5c-0.9,0.7-1.3,1.5-1.6,2.4c-0.5,1.6,0.1,2.9,1.4,3.3c2.4,0.8,5-4,8.9-2.7
			c1.9,0.6,3.5,2.7,2.5,5.7c-0.3,1-1,2.2-2.2,3.3l-2.1-1c1.6-1.2,2.2-2.2,2.5-3.1c0.2-0.8,0.2-2.4-1.2-2.8c-2.6-0.8-5.2,3.9-9.1,2.7
			c-2.5-0.8-3.3-3.7-2.5-6.1c0.2-0.6,0.7-1.7,1.5-2.5L468,486.5z"/>
		<path fill="#FFFFFF" d="M473.6,483.7L473.6,483.7c-1-1.5-1.3-2.8-0.9-3.9c0.6-2.1,2.9-2,4.5-1.3l6,2.8l-0.5,1.9l-6-2.7
			c-1.6-0.7-2.4-0.1-2.5,0.4c-0.2,0.5-0.1,1.7,1.3,3.6l6,2.7l-0.5,1.9l-9.5-4.3l0.5-1.9L473.6,483.7z"/>
		<path fill="#FFFFFF" d="M485.2,474.9c-0.6,2.4-2.6,3.3-5.4,2.6c-3.5-0.9-5.6-3.7-4.9-6.4c0.6-2.3,2.7-3.3,5.3-2.6
			C483.9,469.5,485.9,472.3,485.2,474.9z M483.5,474.6c0.4-1.6-1.2-3.4-4-4.1c-1.7-0.4-2.9,0-3.2,1.1c-0.4,1.6,1.6,3.4,4.1,4.1
			C482,476,483.3,475.5,483.5,474.6z"/>
		<path fill="#FFFFFF" d="M488.6,460.6l-0.2,0.9l-6.9-0.2l0,0l5.8,4.9l-0.2,0.9l-10.7-0.3l0.4-1.9l7,0.4l0,0l-6-4.9l0.2-0.9l7,0.3
			l0,0l-6-4.9l0.4-1.9L488.6,460.6z"/>
		<path fill="#FFFFFF" d="M495.2,437l-0.3,1.1l-12.9,5l10.8,4.2l-0.4,1.9l-14.7-5.7l0.2-1l13-5l-10.9-4.2l0.4-1.9L495.2,437z"/>
		<path fill="#FFFFFF" d="M497,426.1c0.5,1.2,0.6,2.4,0.3,3.6c-0.6,2.5-2.9,3.7-5.9,3c-3.3-0.8-5.3-3.5-4.6-6.2c0.5-2.2,3-3.4,6-2.2
			l-1.5,6.2c2.6,1.1,4.2,0,4.6-1.6c0.2-0.9,0-2.1-0.6-3.6L497,426.1z M491.1,425.7c-1.3-0.3-2.4,0-2.7,1.3c-0.3,1.1,0.3,2.1,1.7,2.9
			L491.1,425.7z"/>
		<path fill="#FFFFFF" d="M491.2,416.6l-0.5,2l5.2,2.3c1.2,0.5,1.7,0.3,1.9-0.6c0.1-0.6,0.1-1-0.1-2l1.8,0.6
			c0.1,0.9,0.1,1.4-0.1,2.2c-0.5,2-2,2.6-3.4,1.9l-5.8-2.6l-0.4,1.8l-1.4-0.6l0.5-1.8l-2-0.9l0.5-1.9l2,0.9l0.5-1.9L491.2,416.6z"/>
		<path fill="#FFFFFF" d="M502.3,409.4l-0.2,0.9l-6.9-0.4l0,0l5.7,5.1l-0.2,0.9l-10.7-0.5l0.5-1.8l7,0.5l0,0l-5.9-5l0.2-0.9l7,0.5
			l0,0l-5.9-5l0.5-1.8L502.3,409.4z"/>
		<path fill="#FFFFFF" d="M504.7,400.5c-0.6,2.4-2.7,3.3-5.5,2.6c-3.5-0.9-5.6-3.7-4.9-6.4c0.6-2.3,2.7-3.2,5.3-2.6
			C503.5,395.1,505.4,397.9,504.7,400.5z M503.1,400.1c0.4-1.6-1.2-3.4-4-4.1c-1.7-0.4-2.9,0-3.2,1c-0.4,1.6,1.6,3.5,4.1,4.1
			C501.6,401.6,502.8,401.1,503.1,400.1z"/>
		<path fill="#FFFFFF" d="M498.8,389L498.8,389c-1.3-1.7-1.6-2.3-1.3-3.2c0.1-0.3,0.2-0.5,0.4-0.8l2.1,0.6c-0.4,0.4-0.5,0.7-0.6,1.1
			c-0.3,1,0.2,1.8,1.8,3.4l5.4,2.3l-0.5,1.9l-9.6-4.1l0.5-1.9L498.8,389z"/>
		<path fill="#FFFFFF" d="M503,383.3L503,383.3l-3.1-5.4l0.7-2.4l3.4,5.9l6.6-3.4l-0.7,2.4l-6.3,3.2l4.8,2.1l-0.5,1.9l-14.5-6.3
			l0.5-1.9L503,383.3z"/>
	</g>
	<g>
		<path fill="#FFFFFF" stroke="#969696" stroke-width="1.9131" d="M83.8,453.1c2,7.1,2.3,12.2,0.9,19c-3.7,17.9-17.1,24.4-29,22
			c-12.3-2.5-21.7-14.9-18.1-32.5c1.3-6.4,3.8-11.9,7.5-15.8l10.3,2.1c-3.9,4.5-6.8,9.2-8,14.9c-2,9.8,2.4,17.9,10.5,19.5
			c8.2,1.7,15.5-3.9,17.5-13.5c1.2-6,0.2-10.4-1.6-17.7L83.8,453.1z"/>
		<path fill="#FFFFFF" stroke="#969696" stroke-width="1.9131" d="M100,432.2c-4.8,9.2-14.1,12.9-23,8.2c-9.6-5-10.6-15.3-6.2-23.6
			c3.6-6.9,12.1-13.8,22.9-8.1C104.8,414.6,103.2,426,100,432.2z M76,419.6c-2,3.8-0.4,8,5.9,11.4c7.3,3.8,11,1.8,12.8-1.5
			c2.2-4.1-0.1-8.1-6.2-11.4C83,415.2,78.3,415.2,76,419.6z"/>
		<path fill="#FFFFFF" stroke="#969696" stroke-width="1.9131" d="M136.2,372.7c-1.4,7.2-3.5,11.9-7.9,17.3
			c-11.4,14.3-26.3,14-35.8,6.4c-9.8-7.8-12.5-23.2-1.3-37.2c4.1-5.1,8.8-8.8,13.8-10.7l8.2,6.5c-5.5,2.2-10.3,5.1-13.9,9.6
			c-6.2,7.8-6,17,0.5,22.2c6.6,5.2,15.6,3.6,21.7-4.1c3.8-4.8,4.9-9.2,6.6-16.5L136.2,372.7z"/>
		<path fill="#FFFFFF" stroke="#969696" stroke-width="1.9131" d="M157.6,358.7c-7.5,7.2-17.5,7.7-24.4,0.5
			c-7.5-7.8-5.2-17.8,1.6-24.3c5.6-5.4,15.9-9.2,24.3-0.4C167.8,343.5,162.7,353.8,157.6,358.7z M138.9,339.1c-3.1,3-2.9,7.5,2,12.7
			c5.7,5.9,9.9,5.2,12.6,2.6c3.4-3.2,2.5-7.7-2.3-12.8C146.9,337.1,142.5,335.6,138.9,339.1z"/>
		<path fill="#FFFFFF" stroke="#969696" stroke-width="1.9131" d="M163.2,291c7.5-6,16.1-4.5,20.4,1c3.2,4,3.5,8.7,0.9,14
			c5.3-1.1,10,2.5,23.8,9.2l-10.1,8c-10.2-4.7-17.3-10.6-22.2-6.7l-2.6,2.1l11.9,14.9l-9.2,7.3L146.8,304L163.2,291z M167.9,311.8
			l4.9-3.9c2.5-2,4.2-5.1,1.7-8.2c-2.2-2.7-5.1-2.7-8.5,0l-4.6,3.7L167.9,311.8z"/>
		<path fill="#FFFFFF" stroke="#969696" stroke-width="1.9131" d="M237.4,292.7c-1.3,2.9-3.9,6.2-6.1,7.7c-2.7,1.9-4.6,1.9-6.6,0.2
			c-1.7,4.3-3.8,6.9-6.6,8.9c-4.2,2.9-9.5,1.9-11.7-1.4c-4.3-6.3-0.5-10.7,8.1-21.6c-1.5-2.6-4-3.7-7.5-1.3c-3.3,2.3-5.9,6.5-6.7,11
			l-4.6-6.7c2-4.4,5-8.1,9.2-11c6.6-4.5,12.6-5.4,16.5,0.4l8.2,11.9c0.9,1.3,1.8,1.5,2.6,0.9c0.6-0.4,1.1-0.9,2.1-3.6L237.4,292.7z
			 M217.3,290.6c-3.7,5.1-5.2,7.8-3.5,10.4c1,1.5,3.1,2,4.6,1c1.5-1,2.7-2.9,3.2-5.1L217.3,290.6z"/>
		<path fill="#FFFFFF" stroke="#969696" stroke-width="1.9131" d="M283.2,267.2l-10,6.1l-10-16.2l-19.9,12.3l10,16.2l-10,6.1
			l-24.6-40l10-6.1l9.9,16.1l19.9-12.3l-9.9-16.1l10-6.1L283.2,267.2z"/>
		<path fill="#FFFFFF" stroke="#969696" stroke-width="1.9131" d="M301.8,216c-7.4,0.8-11.5,1.9-15,3.9c-3.6,2.1-5.2,4.8-4,6.8
			c3.6,6.1,23.2-7.7,31.5,6.4c4.6,7.8,0.7,16.1-8.3,21.4c-7.1,4.1-11.7,4.4-16.9,4.7l-5.1-8.7c8.1,0.4,12.5-0.3,16.9-2.9
			c3.9-2.3,5.1-4.9,3.7-7.2c-3.9-6.7-23.1,7.9-31.6-6.7c-4.1-7-0.8-15.2,8.6-20.7c4.5-2.7,9.2-4.1,15.6-4.9L301.8,216z"/>
	</g>
	<g>
		<path fill="#FFFFFF" stroke="#969696" stroke-width="5.7393" d="M250,305.3C156.5,364.8,26,483,126.1,606.8
			c82.9,102.6,293.4,66.3,345.2-179.3c0,0,45.8-235.5,121-308.5C592.3,119,398.1,211,250,305.3z M273.6,619.6
			c0,0-86.6,26.7-122.6-35.5c-38.4-66.3-41.5-128.5,75.5-228.2l56.1,44.9L273.6,619.6z M503.6,225.6c-9,19.1-47.9,129.2-55.2,162.5
			c-17.6,80.9-57.1,180.9-103.1,200l7.9-215.5l58.4-126.8L525,178.5C525,178.5,512.6,206.5,503.6,225.6z"/>
	</g>
	<line fill="none" stroke="#969696" stroke-width="5.7393" x1="281.4" y1="427.1" x2="306" y2="414.8"/>
	<line fill="none" stroke="#969696" stroke-width="5.7393" x1="279.5" y1="467.3" x2="304.1" y2="455"/>
	<line fill="none" stroke="#969696" stroke-width="5.7393" x1="277.6" y1="509.4" x2="302.1" y2="497.2"/>
	<line fill="none" stroke="#969696" stroke-width="5.7393" x1="275.7" y1="557.3" x2="300.2" y2="545"/>
	<line fill="none" stroke="#969696" stroke-width="5.7393" x1="275.7" y1="603.3" x2="300.2" y2="591"/>
</g>
</svg>
