<?xml version="1.0" encoding="utf-8"?>
<!-- Generator: Adobe Illustrator 18.1.0, SVG Export Plug-In . SVG Version: 6.00 Build 0)  -->
<!DOCTYPE svg PUBLIC "-//W3C//DTD SVG 1.1//EN" "http://www.w3.org/Graphics/SVG/1.1/DTD/svg11.dtd">
<svg version="1.1" id="Layer_1" xmlns="http://www.w3.org/2000/svg" xmlns:xlink="http://www.w3.org/1999/xlink" x="0px" y="0px"
	 viewBox="0 0 612 792" enable-background="new 0 0 612 792" xml:space="preserve">
<rect x="1.2" y="554" fill="#5C87B2" width="645.7" height="116"/>
<circle fill="#FFFFFF" cx="58.4" cy="611" r="43.4"/>
<g>
	<path fill="#5C87B2" d="M27.3,633.1c0-12.2,0-24.4,0-36.6c0.9-2.3,2.5-3.7,5-3.7c0.2-2,0.6-2.5,1.9-2.6c2.3,0,4.6,0,6.9,0
		c1.1,0,1.7,0.6,1.7,1.8c0,0.3,0,0.5,0.1,0.8c3.8,0.3,3.8,0.3,5.3-2.9c0.2-0.5,0.5-1,0.7-1.5c0.7-1.1,1.4-2.2,2.1-3.3
		c7.4,0,14.9,0,22.3,0c0.5,0.8,1.2,1.5,1.6,2.3c0.8,1.4,1.5,2.9,2.1,4.3c0.3,0.8,0.8,1.2,1.7,1.1c1.7-0.1,3.5,0,5.2,0
		c3.5,0,5.4,1.8,5.4,5.3c0,11-0.1,22,0,33c0,3.3-2.2,5.5-5.5,5.5c-16.9-0.1-33.7-0.1-50.6,0C30.4,636.8,28.4,635.9,27.3,633.1z
		 M62,631.6c9.8,0.2,17.3-7.8,17-17.3c-0.2-8.7-7.9-16.1-16.6-16.1c-9.7,0-17.2,7.8-16.9,17.4C45.7,624.2,53.3,631.7,62,631.6z
		 M37.7,601.2c1.7,0,3.2-1.5,3.2-3.1c0-1.6-1.6-3.3-3.2-3.2c-1.7,0-3.2,1.6-3.1,3.3C34.5,599.9,36,601.3,37.7,601.2z"/>
	<path fill="#5C87B2" d="M62.3,626.5c-6.5,0-11.7-5.1-11.7-11.6c0-6.3,5.2-11.6,11.5-11.6c6.5,0,11.7,5.1,11.7,11.6
		C73.8,621.2,68.6,626.5,62.3,626.5z"/>
</g>
</svg>
