<?xml version="1.0" encoding="utf-8"?>
<!-- Generator: Adobe Illustrator 18.1.0, SVG Export Plug-In . SVG Version: 6.00 Build 0)  -->
<!DOCTYPE svg PUBLIC "-//W3C//DTD SVG 1.1//EN" "http://www.w3.org/Graphics/SVG/1.1/DTD/svg11.dtd">
<svg version="1.1" id="Layer_1" xmlns="http://www.w3.org/2000/svg" xmlns:xlink="http://www.w3.org/1999/xlink" x="0px" y="0px"
	 viewBox="0 0 648 1152" enable-background="new 0 0 648 1152" xml:space="preserve">
<rect y="697" fill="#5C87B2" width="648" height="116"/>
<circle fill="#FFFFFF" cx="58.4" cy="754" r="43.4"/>
<g>
	<path fill="#5C87B2" d="M75,742.2c-0.2-3.9-1.6-7.4-4.3-10.3c-1.3-1.4-2.7-2.6-4.4-3.5c-1.6-0.9-3.3-1.5-5.2-1.8
		c-0.6-0.1-1.2-0.2-1.7-0.2c-0.1,0-0.1,0-0.2,0h-1.4c-0.1,0-0.1,0-0.2,0c-1.6,0.1-3.2,0.3-4.7,0.8c-2,0.6-3.8,1.6-5.4,3
		c-2,1.7-3.5,3.7-4.6,6.1c-0.6,1.3-1,2.8-1.2,4.2c-0.1,0.5-0.1,1-0.2,1.4c0,0.1,0,0.3-0.1,0.4v1.4c0,0.1,0.1,0.3,0.1,0.4
		c0.1,1.2,0.3,2.4,0.6,3.6c0.3,0.9,0.7,1.8,1.1,2.7c0.9,1.7,1.7,3.5,2.6,5.3c4.1,8.5,8.1,17,12.2,25.4c0,0.1,0.1,0.2,0.1,0.3
		c0.1-0.1,0.1-0.2,0.1-0.2c0.5-1,1-2,1.4-3c3.6-7.5,7.2-15,10.7-22.5c0.6-1.2,1.2-2.4,1.8-3.6c0.3-0.6,0.6-1.1,0.9-1.7
		c0.8-1.5,1.3-3.1,1.5-4.8c0.1-0.5,0.2-1.1,0.2-1.6c0-0.1,0-0.2,0-0.2v-1.4C75,742.4,75,742.3,75,742.2z M58.4,752.3
		c-4.7,0-8.6-3.9-8.6-8.5c0-4.9,3.9-8.7,8.6-8.7c4.8,0,8.7,3.8,8.7,8.7C67,748.4,63.1,752.3,58.4,752.3z"/>
	<path fill="#FFFFFF" d="M67,743.7c0,4.7-3.9,8.6-8.6,8.6c-4.7,0-8.6-3.9-8.6-8.5c0-4.9,3.9-8.7,8.6-8.7C63.1,735,67,738.9,67,743.7
		z"/>
</g>
</svg>
