<?xml version="1.0" encoding="utf-8"?>
<!-- Generator: Adobe Illustrator 18.1.0, SVG Export Plug-In . SVG Version: 6.00 Build 0)  -->
<!DOCTYPE svg PUBLIC "-//W3C//DTD SVG 1.1//EN" "http://www.w3.org/Graphics/SVG/1.1/DTD/svg11.dtd">
<svg version="1.1" id="Layer_1" xmlns="http://www.w3.org/2000/svg" xmlns:xlink="http://www.w3.org/1999/xlink" x="0px" y="0px"
	 viewBox="0 0 648 1152" enable-background="new 0 0 648 1152" xml:space="preserve">
<g>
	<path fill="#FFFFFF" d="M118,55.7l-3.6-15.2L101,41.9c-1.3-2.3-2.9-4.3-4.7-6.2l4.9-12l-13.4-8.2l-8.3,10.3
		c-2.9-0.8-5.9-1.1-8.9-1.2l-5.2-11.6l-15.2,4.1L52.1,30c-2.1,1.3-4,2.8-5.7,4.4l-11.5-4.7L26.6,43l9.9,8c-0.7,2.7-1.1,5.6-1.2,8.4
		L24,64.1l3.6,15.3L40.3,78c1.5,2.5,3.2,4.8,5.1,6.8l-4.6,11.2l13.4,8.2l8-9.9c2.7,0.7,5.5,1,8.3,1.1l4.7,11.4l15.3-3.6l-1.4-13
		c2.4-1.4,4.5-3.1,6.4-4.9l11.7,4.8l8.2-13.4l-10.4-8.3c0.6-2.5,1-5.2,1-7.8L118,55.7z M81,79.4c-10.8,5.5-24,1.3-29.5-9.5
		c-5.5-10.8-1.3-24,9.5-29.5c10.8-5.5,24-1.2,29.5,9.5C96,60.7,91.8,73.9,81,79.4"/>
	<path fill="#FFFFFF" d="M78.2,56.3c2,3.9,0.5,8.8-3.5,10.8c-3.9,2-8.8,0.5-10.8-3.5c-2-4-0.5-8.8,3.5-10.8
		C71.3,50.8,76.2,52.4,78.2,56.3"/>
</g>
<text transform="matrix(1 0 0 1 36.3088 133)" fill="#FFFFFF" font-family="'ArialMT'" font-size="20">Settings</text>
</svg>
